HIERARCHY
ROOT mixamorig:Hips
{
	OFFSET -0.000008 104.274872 1.554316
	CHANNELS 6 Xposition Yposition Zposition Xrotation Yrotation Zrotation
	JOINT mixamorig:Spine
	{
		OFFSET -0.000005 10.181595 0.131519
		CHANNELS 6 Xposition Yposition Zposition Xrotation Yrotation Zrotation
		JOINT mixamorig:Spine1
		{
			OFFSET -0.000000 9.893959 -1.470707
			CHANNELS 6 Xposition Yposition Zposition Xrotation Yrotation Zrotation
			JOINT mixamorig:Spine2
			{
				OFFSET -0.000000 9.220757 -1.370641
				CHANNELS 6 Xposition Yposition Zposition Xrotation Yrotation Zrotation
				JOINT mixamorig:Neck
				{
					OFFSET 0.000001 16.740417 -2.049036
					CHANNELS 6 Xposition Yposition Zposition Xrotation Yrotation Zrotation
					JOINT mixamorig:Head
					{
						OFFSET 0.000000 9.617874 1.685006
						CHANNELS 6 Xposition Yposition Zposition Xrotation Yrotation Zrotation
						JOINT mixamorig:HeadTop_End
						{
							OFFSET 0.000002 22.037354 7.501101
							CHANNELS 6 Xposition Yposition Zposition Xrotation Yrotation Zrotation
							End Site
							{
								OFFSET 0.000168 2310.654297 -282.823242
							}
						}
					}
				}
				JOINT mixamorig:RightShoulder
				{
					OFFSET -4.569970 11.014908 -2.160885
					CHANNELS 6 Xposition Yposition Zposition Xrotation Yrotation Zrotation
					JOINT mixamorig:RightArm
					{
						OFFSET -10.592851 -0.524811 -2.232101
						CHANNELS 6 Xposition Yposition Zposition Xrotation Yrotation Zrotation
						JOINT mixamorig:RightForeArm
						{
							OFFSET -27.841511 0.000031 -0.000004
							CHANNELS 6 Xposition Yposition Zposition Xrotation Yrotation Zrotation
							JOINT mixamorig:RightHand
							{
								OFFSET -28.328831 -0.000015 0.000015
								CHANNELS 6 Xposition Yposition Zposition Xrotation Yrotation Zrotation
								JOINT mixamorig:RightHandThumb1
								{
									OFFSET -2.464806 -1.573990 2.681852
									CHANNELS 6 Xposition Yposition Zposition Xrotation Yrotation Zrotation
									JOINT mixamorig:RightHandThumb2
									{
										OFFSET -3.215179 -1.872803 1.924282
										CHANNELS 6 Xposition Yposition Zposition Xrotation Yrotation Zrotation
										JOINT mixamorig:RightHandThumb3
										{
											OFFSET -2.654831 -1.527969 1.512609
											CHANNELS 6 Xposition Yposition Zposition Xrotation Yrotation Zrotation
											JOINT mixamorig:RightHandThumb4
											{
												OFFSET -2.018814 -1.152008 1.108052
												CHANNELS 6 Xposition Yposition Zposition Xrotation Yrotation Zrotation
												End Site
												{
													OFFSET -188.809540 -114.533607 132.431396
												}
											}
										}
									}
								}
								JOINT mixamorig:RightHandIndex1
								{
									OFFSET -9.108284 -0.517868 2.259835
									CHANNELS 6 Xposition Yposition Zposition Xrotation Yrotation Zrotation
									JOINT mixamorig:RightHandIndex2
									{
										OFFSET -3.699989 0.000000 0.001215
										CHANNELS 6 Xposition Yposition Zposition Xrotation Yrotation Zrotation
										JOINT mixamorig:RightHandIndex3
										{
											OFFSET -2.850006 0.000031 -0.000522
											CHANNELS 6 Xposition Yposition Zposition Xrotation Yrotation Zrotation
											JOINT mixamorig:RightHandIndex4
											{
												OFFSET -2.772186 -0.000015 -0.000020
												CHANNELS 6 Xposition Yposition Zposition Xrotation Yrotation Zrotation
												End Site
												{
													OFFSET -277.218445 0.000000 -0.050231
												}
											}
										}
									}
								}
								JOINT mixamorig:RightHandMiddle1
								{
									OFFSET -9.532516 -0.000031 -0.000023
									CHANNELS 6 Xposition Yposition Zposition Xrotation Yrotation Zrotation
									JOINT mixamorig:RightHandMiddle2
									{
										OFFSET -3.700005 -0.000015 0.003713
										CHANNELS 6 Xposition Yposition Zposition Xrotation Yrotation Zrotation
										JOINT mixamorig:RightHandMiddle3
										{
											OFFSET -2.949974 0.000015 -0.002054
											CHANNELS 6 Xposition Yposition Zposition Xrotation Yrotation Zrotation
											JOINT mixamorig:RightHandMiddle4
											{
												OFFSET -2.946640 0.000000 -0.000156
												CHANNELS 6 Xposition Yposition Zposition Xrotation Yrotation Zrotation
												End Site
												{
													OFFSET -294.664337 0.000000 -0.113670
												}
											}
										}
									}
								}
								JOINT mixamorig:RightHandRing1
								{
									OFFSET -9.103600 -0.043076 -1.865134
									CHANNELS 6 Xposition Yposition Zposition Xrotation Yrotation Zrotation
									JOINT mixamorig:RightHandRing2
									{
										OFFSET -3.379288 0.000000 -0.001055
										CHANNELS 6 Xposition Yposition Zposition Xrotation Yrotation Zrotation
										JOINT mixamorig:RightHandRing3
										{
											OFFSET -2.889687 -0.000015 0.000379
											CHANNELS 6 Xposition Yposition Zposition Xrotation Yrotation Zrotation
											JOINT mixamorig:RightHandRing4
											{
												OFFSET -2.638809 -0.000015 0.000941
												CHANNELS 6 Xposition Yposition Zposition Xrotation Yrotation Zrotation
												End Site
												{
													OFFSET -263.880371 0.000000 0.516020
												}
											}
										}
									}
								}
								JOINT mixamorig:RightHandPinky1
								{
									OFFSET -8.076683 -0.486710 -3.806280
									CHANNELS 6 Xposition Yposition Zposition Xrotation Yrotation Zrotation
									JOINT mixamorig:RightHandPinky2
									{
										OFFSET -3.600014 -0.000015 -0.003747
										CHANNELS 6 Xposition Yposition Zposition Xrotation Yrotation Zrotation
										JOINT mixamorig:RightHandPinky3
										{
											OFFSET -2.099983 0.000000 -0.005739
											CHANNELS 6 Xposition Yposition Zposition Xrotation Yrotation Zrotation
											JOINT mixamorig:RightHandPinky4
											{
												OFFSET -2.115768 -0.000031 -0.003680
												CHANNELS 6 Xposition Yposition Zposition Xrotation Yrotation Zrotation
												End Site
												{
													OFFSET -211.577087 0.000000 -0.350686
												}
											}
										}
									}
								}
							}
						}
					}
				}
				JOINT mixamorig:LeftShoulder
				{
					OFFSET 4.570447 11.014725 -2.160855
					CHANNELS 6 Xposition Yposition Zposition Xrotation Yrotation Zrotation
					JOINT mixamorig:LeftArm
					{
						OFFSET 10.592371 -0.524597 -2.232119
						CHANNELS 6 Xposition Yposition Zposition Xrotation Yrotation Zrotation
						JOINT mixamorig:LeftForeArm
						{
							OFFSET 27.841532 -0.000031 0.000026
							CHANNELS 6 Xposition Yposition Zposition Xrotation Yrotation Zrotation
							JOINT mixamorig:LeftHand
							{
								OFFSET 28.328846 -0.000061 0.000022
								CHANNELS 6 Xposition Yposition Zposition Xrotation Yrotation Zrotation
								JOINT mixamorig:LeftHandThumb1
								{
									OFFSET 2.466141 -1.576172 2.681732
									CHANNELS 6 Xposition Yposition Zposition Xrotation Yrotation Zrotation
									JOINT mixamorig:LeftHandThumb2
									{
										OFFSET 3.217812 -1.872070 1.916482
										CHANNELS 6 Xposition Yposition Zposition Xrotation Yrotation Zrotation
										JOINT mixamorig:LeftHandThumb3
										{
											OFFSET 2.656029 -1.528778 1.514513
											CHANNELS 6 Xposition Yposition Zposition Xrotation Yrotation Zrotation
											JOINT mixamorig:LeftHandThumb4
											{
												OFFSET 2.020889 -1.154053 1.115139
												CHANNELS 6 Xposition Yposition Zposition Xrotation Yrotation Zrotation
												End Site
												{
													OFFSET 190.885437 -115.081749 130.048782
												}
											}
										}
									}
								}
								JOINT mixamorig:LeftHandIndex1
								{
									OFFSET 9.109314 -0.518021 2.259871
									CHANNELS 6 Xposition Yposition Zposition Xrotation Yrotation Zrotation
									JOINT mixamorig:LeftHandIndex2
									{
										OFFSET 3.699989 0.000000 -0.000322
										CHANNELS 6 Xposition Yposition Zposition Xrotation Yrotation Zrotation
										JOINT mixamorig:LeftHandIndex3
										{
											OFFSET 2.850006 0.000000 0.000352
											CHANNELS 6 Xposition Yposition Zposition Xrotation Yrotation Zrotation
											JOINT mixamorig:LeftHandIndex4
											{
												OFFSET 2.774864 -0.000031 -0.000027
												CHANNELS 6 Xposition Yposition Zposition Xrotation Yrotation Zrotation
												End Site
												{
													OFFSET 277.486267 0.000000 -0.009857
												}
											}
										}
									}
								}
								JOINT mixamorig:LeftHandMiddle1
								{
									OFFSET 9.533394 0.000061 0.000044
									CHANNELS 6 Xposition Yposition Zposition Xrotation Yrotation Zrotation
									JOINT mixamorig:LeftHandMiddle2
									{
										OFFSET 3.699989 -0.000015 -0.000231
										CHANNELS 6 Xposition Yposition Zposition Xrotation Yrotation Zrotation
										JOINT mixamorig:LeftHandMiddle3
										{
											OFFSET 2.949997 -0.000015 -0.000059
											CHANNELS 6 Xposition Yposition Zposition Xrotation Yrotation Zrotation
											JOINT mixamorig:LeftHandMiddle4
											{
												OFFSET 2.952896 0.000031 0.000063
												CHANNELS 6 Xposition Yposition Zposition Xrotation Yrotation Zrotation
												End Site
												{
													OFFSET 295.289337 0.000000 0.022810
												}
											}
										}
									}
								}
								JOINT mixamorig:LeftHandRing1
								{
									OFFSET 9.104523 -0.042999 -1.865074
									CHANNELS 6 Xposition Yposition Zposition Xrotation Yrotation Zrotation
									JOINT mixamorig:LeftHandRing2
									{
										OFFSET 3.150009 -0.000031 0.000043
										CHANNELS 6 Xposition Yposition Zposition Xrotation Yrotation Zrotation
										JOINT mixamorig:LeftHandRing3
										{
											OFFSET 2.949982 -0.000015 0.000040
											CHANNELS 6 Xposition Yposition Zposition Xrotation Yrotation Zrotation
											JOINT mixamorig:LeftHandRing4
											{
												OFFSET 2.644348 0.000000 0.000057
												CHANNELS 6 Xposition Yposition Zposition Xrotation Yrotation Zrotation
												End Site
												{
													OFFSET 264.434631 0.000000 0.012105
												}
											}
										}
									}
								}
								JOINT mixamorig:LeftHandPinky1
								{
									OFFSET 8.077789 -0.486847 -3.806259
									CHANNELS 6 Xposition Yposition Zposition Xrotation Yrotation Zrotation
									JOINT mixamorig:LeftHandPinky2
									{
										OFFSET 3.599953 0.000031 0.014727
										CHANNELS 6 Xposition Yposition Zposition Xrotation Yrotation Zrotation
										JOINT mixamorig:LeftHandPinky3
										{
											OFFSET 2.100021 0.000015 0.007705
											CHANNELS 6 Xposition Yposition Zposition Xrotation Yrotation Zrotation
											JOINT mixamorig:LeftHandPinky4
											{
												OFFSET 2.125504 0.000031 0.007517
												CHANNELS 6 Xposition Yposition Zposition Xrotation Yrotation Zrotation
												End Site
												{
													OFFSET 212.550781 0.000000 0.625752
												}
											}
										}
									}
								}
							}
						}
					}
				}
			}
		}
	}
	JOINT mixamorig:RightUpLeg
	{
		OFFSET -8.207787 -6.751648 -1.599560
		CHANNELS 6 Xposition Yposition Zposition Xrotation Yrotation Zrotation
		JOINT mixamorig:RightLeg
		{
			OFFSET -0.000002 -44.370117 0.345942
			CHANNELS 6 Xposition Yposition Zposition Xrotation Yrotation Zrotation
			JOINT mixamorig:RightFoot
			{
				OFFSET 0.000003 -44.423679 -3.043532
				CHANNELS 6 Xposition Yposition Zposition Xrotation Yrotation Zrotation
				JOINT mixamorig:RightToeBase
				{
					OFFSET -0.000002 -8.728671 10.710558
					CHANNELS 6 Xposition Yposition Zposition Xrotation Yrotation Zrotation
					JOINT mixamorig:RightToe_End
					{
						OFFSET -0.000001 -0.000679 9.278119
						CHANNELS 6 Xposition Yposition Zposition Xrotation Yrotation Zrotation
						End Site
						{
							OFFSET 0.000000 -0.067690 927.812134
						}
					}
				}
			}
		}
	}
	JOINT mixamorig:LeftUpLeg
	{
		OFFSET 8.207793 -6.751686 -1.599556
		CHANNELS 6 Xposition Yposition Zposition Xrotation Yrotation Zrotation
		JOINT mixamorig:LeftLeg
		{
			OFFSET -0.000004 -44.370014 0.346954
			CHANNELS 6 Xposition Yposition Zposition Xrotation Yrotation Zrotation
			JOINT mixamorig:LeftFoot
			{
				OFFSET -0.000001 -44.423672 -3.044401
				CHANNELS 6 Xposition Yposition Zposition Xrotation Yrotation Zrotation
				JOINT mixamorig:LeftToeBase
				{
					OFFSET -0.000002 -8.728669 10.710558
					CHANNELS 6 Xposition Yposition Zposition Xrotation Yrotation Zrotation
					JOINT mixamorig:LeftToe_End
					{
						OFFSET -0.000003 -0.000679 9.278133
						CHANNELS 6 Xposition Yposition Zposition Xrotation Yrotation Zrotation
						End Site
						{
							OFFSET 0.000000 -0.068021 927.813477
						}
					}
				}
			}
		}
	}
}
MOTION
Frames: 3
Frame Time: 0.033333
0.000006 104.270477 1.554256 0.000010 0.000003 -0.000113 -0.000005 10.181587 0.131522 0.000001 -0.000003 0.000084 -0.000000 9.893967 -1.470711 0.000001 0.000000 -0.000000 -0.000000 9.220802 -1.370642 0.000000 -0.000000 -0.000000 0.000001 16.740433 -2.049030 0.000000 -0.000000 -0.000000 0.000000 9.617859 1.685014 0.000000 0.000000 0.000000 0.000002 22.037384 7.501101 0.000000 -0.000000 0.000000 -4.569968 11.014880 -2.160881 0.000008 0.000001 -0.000038 -10.592886 -0.524727 -2.231956 73.688596 19.151336 -14.408849 -27.841528 -0.000008 0.000546 -50.752810 108.817583 67.068967 -28.328821 0.000007 0.000024 -0.000321 -0.000045 0.000007 -2.464430 -1.573887 2.682357 -34.349462 -152.005355 17.410388 -3.215274 -1.872571 1.924644 156.209869 32.700398 8.878285 -2.654955 -1.527898 1.513084 145.641531 26.878676 -40.836547 -2.018827 -1.152004 1.108054 -0.000002 -0.000000 0.000002 -9.108391 -0.517569 2.260159 107.105043 16.304558 -22.017052 -3.700077 0.000320 0.001543 104.061661 11.881509 -15.160117 -2.850084 0.000369 -0.000230 102.022802 9.336575 -11.519899 -2.772168 -0.000001 -0.000019 0.000002 -0.000001 -0.000001 -9.532607 0.000256 0.000301 103.422677 16.880145 -21.470925 -3.700064 0.000347 0.004019 104.117669 9.516320 -12.070376 -2.950042 0.000340 -0.001775 104.642487 9.431725 -12.185034 -2.946621 0.000012 -0.000157 -0.000001 0.000000 0.000002 -9.103713 -0.042761 -1.864827 100.869736 18.410864 -22.140215 -3.379304 0.000325 -0.000764 105.462567 7.792909 -10.252087 -2.889746 0.000341 0.000705 110.463352 6.072434 -8.803656 -2.638805 -0.000014 0.000939 -0.000000 0.000001 -0.000002 -8.076776 -0.486403 -3.805992 91.061393 22.629411 -22.881187 -3.600040 0.000258 -0.003483 95.703784 10.778050 -11.497243 -2.100036 0.000320 -0.005431 100.649490 6.174417 -7.173945 -2.115774 -0.000056 -0.003679 0.000003 -0.000001 -0.000004 4.570446 11.014691 -2.160851 -0.000018 0.000010 -0.000021 10.592501 -0.524522 -2.232400 63.121569 -56.794085 36.741602 27.841759 -0.000064 -0.000112 225.850696 -77.524484 235.555111 28.328838 -0.000030 0.000019 0.000021 -0.000087 0.000000 2.466191 -1.576116 2.681899 74.875177 143.477672 -134.614177 3.217831 -1.871986 1.916542 231.858011 34.692686 61.580699 2.656031 -1.528801 1.514619 194.551901 31.190708 94.917028 2.020878 -1.154070 1.115143 -0.000001 0.000000 0.000008 9.109468 -0.517872 2.259897 166.528454 -10.826044 77.387580 3.700014 0.000266 -0.000454 112.142595 -4.895538 7.294861 2.850011 0.000082 0.000239 42.602379 -5.776446 2.253413 2.774880 -0.000031 -0.000025 -0.000001 -0.000005 -0.000003 9.533549 0.000182 0.000082 168.984563 -8.994657 78.327899 3.699950 0.000294 -0.000403 110.028194 8.572941 -12.228764 2.950007 0.000009 -0.000145 26.159304 -2.802432 0.651852 2.952854 -0.000044 0.000066 0.000001 -0.000000 0.000005 9.104595 -0.043003 -1.865023 174.040105 -10.740928 122.068540 3.149835 0.000382 -0.000092 129.914037 16.517252 -34.514022 2.949970 0.000013 -0.000067 22.687725 10.853463 -2.183504 2.644325 0.000017 0.000056 0.000000 0.000003 -0.000000 8.077789 -0.486894 -3.806193 174.143009 -15.534972 142.947772 3.600084 0.000201 0.014771 171.998356 -5.061484 71.700560 2.100101 0.000117 0.007750 170.938297 -7.278571 83.134337 2.125503 -0.000002 0.007513 -0.000000 -0.000002 0.000000 -8.207786 -6.751667 -1.599560 -0.077001 -0.000003 0.000080 -0.000002 -44.370110 0.345938 0.153719 -0.000000 -0.000000 0.000000 -44.423679 -3.043532 -0.076700 0.000000 -0.000002 -0.000006 -8.728667 10.710559 -0.000009 -0.000000 -0.000000 -0.000001 -0.000679 9.278123 0.000000 -0.000000 -0.000000 8.207792 -6.751710 -1.599556 -0.074518 -0.000003 0.000081 -0.000002 -44.370014 0.346960 0.148822 0.000002 0.000000 -0.000001 -44.423664 -3.044403 -0.074314 0.000000 -0.000002 -0.000004 -8.728671 10.710558 0.000007 -0.000000 -0.000000 0.000000 -0.000680 9.278137 -0.000000 0.000000 -0.000001 
0.000006 104.270477 1.554256 0.000010 0.000003 -0.000113 -0.000005 10.181587 0.131522 0.000001 -0.000003 0.000084 -0.000000 9.893967 -1.470711 0.000001 0.000000 -0.000000 -0.000000 9.220802 -1.370642 0.000000 -0.000000 -0.000000 0.000001 16.740433 -2.049030 0.000000 -0.000000 -0.000000 0.000000 9.617859 1.685014 0.000000 0.000000 0.000000 0.000002 22.037384 7.501101 0.000000 -0.000000 0.000000 -4.569968 11.014880 -2.160881 0.000008 0.000001 -0.000038 -10.592885 -0.524713 -2.231966 73.828956 17.857057 -13.461903 -27.841515 -0.000002 0.000546 -50.940722 108.933608 67.405518 -28.328838 0.000007 0.000026 -0.000319 -0.000044 0.000008 -2.464423 -1.573907 2.682373 -33.716334 -151.398957 18.375878 -3.215272 -1.872543 1.924658 155.254598 32.991480 11.539717 -2.654950 -1.527905 1.513083 145.600440 26.958376 -40.011678 -2.018834 -1.151998 1.108053 -0.000008 -0.000003 0.000002 -9.108389 -0.517560 2.260154 107.432865 16.125887 -21.906732 -3.700076 0.000319 0.001549 103.929217 12.017953 -15.297652 -2.850070 0.000376 -0.000227 101.786846 9.584307 -11.775538 -2.772172 -0.000001 -0.000021 -0.000001 0.000001 0.000001 -9.532616 0.000258 0.000282 103.610384 16.742465 -21.368802 -3.700067 0.000346 0.004014 103.766945 9.815107 -12.373796 -2.950035 0.000328 -0.001773 104.376232 9.726104 -12.504705 -2.946626 -0.000000 -0.000155 -0.000000 -0.000001 0.000001 -9.103720 -0.042762 -1.864827 101.620640 18.444574 -22.471314 -3.379303 0.000337 -0.000769 105.015777 7.742335 -10.104265 -2.889747 0.000340 0.000698 109.570489 6.179859 -8.811227 -2.638798 -0.000001 0.000941 0.000000 -0.000001 0.000001 -8.076782 -0.486404 -3.805997 92.031150 22.911045 -23.551968 -3.600038 0.000282 -0.003484 94.824288 10.681338 -11.217997 -2.100024 0.000316 -0.005435 98.975049 6.049872 -6.819762 -2.115761 -0.000022 -0.003686 0.000002 -0.000003 -0.000003 4.570446 11.014691 -2.160851 -0.000018 0.000010 -0.000021 10.592504 -0.524524 -2.232399 63.304256 -55.840089 36.181892 27.841755 -0.000054 -0.000117 225.775796 -77.456456 235.526451 28.328835 -0.000013 0.000023 0.000023 -0.000087 0.000002 2.466191 -1.576133 2.681890 74.465789 142.716338 -134.018338 3.217857 -1.871975 1.916528 233.518922 34.085622 59.951063 2.656029 -1.528792 1.514603 198.023809 31.140690 90.966085 2.020911 -1.154065 1.115152 0.000002 0.000002 0.000001 9.109456 -0.517890 2.259911 166.896465 -11.174542 80.753156 3.700051 0.000287 -0.000435 121.340797 -5.965899 10.625382 2.850025 0.000115 0.000219 59.937738 -8.470717 4.889647 2.774887 -0.000046 -0.000029 0.000002 -0.000002 0.000000 9.533531 0.000173 0.000093 169.552520 -8.945740 81.018194 3.699953 0.000352 -0.000353 128.435191 5.017500 -10.369675 2.950018 0.000092 -0.000195 62.042426 -8.504405 5.121966 2.952848 -0.000031 0.000071 -0.000002 0.000000 0.000001 9.104590 -0.042999 -1.865013 174.638689 -10.050641 123.954778 3.149874 0.000438 -0.000055 144.192301 11.064997 -33.376700 2.949962 0.000125 -0.000147 61.655517 7.548986 -4.508520 2.644321 0.000042 0.000052 -0.000001 -0.000002 0.000002 8.077795 -0.486872 -3.806187 173.725793 -14.851007 138.647253 3.600080 0.000162 0.014771 172.865367 -5.152787 79.366682 2.100097 0.000074 0.007757 171.957662 -7.729058 93.591186 2.125503 -0.000027 0.007517 0.000001 -0.000003 0.000000 -8.207786 -6.751667 -1.599560 -0.077001 -0.000003 0.000080 -0.000002 -44.370110 0.345938 0.153719 -0.000000 -0.000000 0.000000 -44.423679 -3.043532 -0.076700 0.000000 -0.000002 -0.000006 -8.728667 10.710559 -0.000009 -0.000000 -0.000000 -0.000001 -0.000679 9.278123 0.000000 -0.000000 -0.000000 8.207792 -6.751710 -1.599556 -0.074518 -0.000003 0.000081 -0.000002 -44.370014 0.346960 0.148822 0.000002 0.000000 -0.000001 -44.423664 -3.044403 -0.074314 0.000000 -0.000002 -0.000004 -8.728671 10.710558 0.000007 -0.000000 -0.000000 0.000000 -0.000680 9.278137 -0.000000 0.000000 -0.000001 
0.000006 104.270477 1.554256 0.000010 0.000003 -0.000113 -0.000005 10.181587 0.131522 0.000001 -0.000003 0.000084 -0.000000 9.893967 -1.470711 0.000001 0.000000 -0.000000 -0.000000 9.220802 -1.370642 0.000000 -0.000000 -0.000000 0.000001 16.740433 -2.049030 0.000000 -0.000000 -0.000000 0.000000 9.617859 1.685014 0.000000 0.000000 0.000000 0.000002 22.037384 7.501101 0.000000 -0.000000 0.000000 -4.569968 11.014880 -2.160881 0.000008 0.000001 -0.000038 -10.592880 -0.524715 -2.231975 73.906089 16.752171 -12.641185 -27.841516 0.000024 0.000539 -51.039377 108.742950 67.336759 -28.328817 0.000022 0.000032 -0.000318 -0.000045 0.000008 -2.464407 -1.573894 2.682370 -34.985503 -153.119358 16.654359 -3.215268 -1.872584 1.924630 155.852172 33.004471 10.972533 -2.654959 -1.527888 1.513092 146.783019 26.782454 -39.087110 -2.018819 -1.152006 1.108060 -0.000001 0.000006 0.000005 -9.108372 -0.517559 2.260161 107.964875 16.213261 -22.234212 -3.700070 0.000326 0.001546 104.252224 11.915152 -15.254522 -2.850077 0.000366 -0.000220 102.631939 9.358317 -11.672132 -2.772178 -0.000015 -0.000022 0.000001 0.000001 -0.000000 -9.532590 0.000263 0.000296 103.518409 16.666553 -21.239122 -3.700053 0.000342 0.004013 103.796267 9.719950 -12.259589 -2.950044 0.000345 -0.001754 104.615808 9.541907 -12.321156 -2.946634 0.000000 -0.000156 0.000001 -0.000001 0.000001 -9.103701 -0.042767 -1.864822 100.878793 18.357173 -22.079473 -3.379315 0.000327 -0.000775 105.405795 7.849790 -10.316049 -2.889736 0.000358 0.000689 110.220914 6.011707 -8.677279 -2.638811 0.000003 0.000943 -0.000001 -0.000002 -0.000002 -8.076763 -0.486418 -3.806002 91.307444 22.408775 -22.751961 -3.600053 0.000284 -0.003500 94.767256 10.714554 -11.242765 -2.100028 0.000300 -0.005452 99.092637 6.201621 -7.011141 -2.115783 -0.000045 -0.003675 0.000002 -0.000001 -0.000003 4.570446 11.014691 -2.160851 -0.000018 0.000010 -0.000021 10.592499 -0.524523 -2.232388 63.571432 -56.321883 36.704217 27.841755 -0.000060 -0.000126 225.694858 -77.465717 235.425528 28.328842 -0.000028 0.000026 0.000023 -0.000087 -0.000001 2.466190 -1.576118 2.681886 75.666461 142.695711 -134.784481 3.217848 -1.871959 1.916537 234.049546 33.283307 59.064197 2.656019 -1.528788 1.514615 197.885088 30.851182 90.871371 2.020891 -1.154067 1.115149 0.000000 0.000005 0.000002 9.109472 -0.517872 2.259896 165.794974 -11.089295 75.754625 3.700022 0.000264 -0.000450 114.215776 -4.820211 7.470726 2.850021 0.000103 0.000212 49.353178 -4.708571 2.163774 2.774879 -0.000028 -0.000031 -0.000000 -0.000003 0.000000 9.533544 0.000224 0.000065 166.753850 -9.234456 69.569780 3.699967 0.000277 -0.000403 102.899621 8.892987 -11.149414 2.950010 -0.000010 -0.000164 30.554855 0.138139 -0.037062 2.952857 -0.000001 0.000066 -0.000001 -0.000002 0.000000 9.104654 -0.042942 -1.865037 170.836063 -10.482197 97.733040 3.149898 0.000376 -0.000138 121.058614 16.753491 -29.208932 2.949968 0.000048 -0.000090 30.687688 9.647535 -2.652739 2.644317 0.000031 0.000055 0.000001 0.000003 0.000000 8.077817 -0.486875 -3.806205 173.284167 -14.371502 134.491493 3.600106 0.000261 0.014767 170.431962 -4.073903 52.261677 2.100126 0.000181 0.007743 170.172579 -6.453829 72.023546 2.125510 -0.000014 0.007515 -0.000001 -0.000002 0.000001 -8.207786 -6.751667 -1.599560 -0.077001 -0.000003 0.000080 -0.000002 -44.370110 0.345938 0.153719 -0.000000 -0.000000 0.000000 -44.423679 -3.043532 -0.076700 0.000000 -0.000002 -0.000006 -8.728667 10.710559 -0.000009 -0.000000 -0.000000 -0.000001 -0.000679 9.278123 0.000000 -0.000000 -0.000000 8.207792 -6.751710 -1.599556 -0.074518 -0.000003 0.000081 -0.000002 -44.370014 0.346960 0.148822 0.000002 0.000000 -0.000001 -44.423664 -3.044403 -0.074314 0.000000 -0.000002 -0.000004 -8.728671 10.710558 0.000007 -0.000000 -0.000000 0.000000 -0.000680 9.278137 -0.000000 0.000000 -0.000001 
